<svg width="187" height="43" viewBox="0 0 187 43" fill="none" xmlns="http://www.w3.org/2000/svg">
<path d="M50.8933 17.8616H48.834V17.8244C48.915 17.7996 48.9902 17.7592 49.0552 17.7055C49.1202 17.6518 49.1737 17.586 49.2125 17.5118C49.2846 17.2553 49.3127 16.9887 49.2958 16.723V12.3176C49.2958 11.8972 49.2277 11.6888 49.0876 11.6888H47.9141C47.7626 11.6888 47.6869 11.9009 47.6869 12.3214V15.7333C47.7257 16.318 47.6137 16.9028 47.3614 17.4337C47.2841 17.5934 47.1632 17.7287 47.0121 17.8247C46.861 17.9206 46.6857 17.9733 46.5058 17.9769C46.4083 17.9845 46.3102 17.9722 46.2177 17.9408C46.1252 17.9095 46.0403 17.8597 45.9683 17.7946C45.9095 17.7395 45.863 17.6731 45.8318 17.5994C45.8005 17.5257 45.7851 17.4465 45.7866 17.3667C45.7833 17.2068 45.8384 17.0511 45.9418 16.9277C45.9915 16.8689 46.0541 16.822 46.1249 16.7904C46.1957 16.7588 46.2729 16.7434 46.3506 16.7453C46.4961 16.7561 46.6362 16.8035 46.7576 16.883C46.8789 16.9625 46.9774 17.0714 47.0434 17.1993C47.2466 16.7299 47.3348 16.22 47.3008 15.711V12.8609C47.3183 12.5112 47.2877 12.1607 47.21 11.8191C47.1714 11.7238 47.1126 11.6376 47.0376 11.5664C46.9625 11.4952 46.8729 11.4405 46.7746 11.406V11.3726H50.9387V11.4098C50.7776 11.4643 50.6427 11.5757 50.5602 11.7223C50.4829 11.9792 50.4521 12.2475 50.4693 12.5148V16.723C50.451 16.9889 50.4805 17.256 50.5564 17.5118C50.5949 17.5862 50.6483 17.6523 50.7133 17.706C50.7783 17.7597 50.8537 17.7999 50.935 17.8244L50.8933 17.8616Z" fill="#49453F"/>
<path d="M51.7564 17.8616V17.8244C51.9183 17.7711 52.0536 17.6594 52.135 17.5118C52.2129 17.2551 52.2437 16.9867 52.2258 16.7193V12.4888C52.2437 12.2214 52.2129 11.953 52.135 11.6963C52.0533 11.5489 51.9181 11.4373 51.7564 11.3837V11.3726H55.1332V12.8125H55.0877C54.8795 12.4678 54.6427 12.1405 54.3798 11.8339C54.3125 11.7722 54.2332 11.7242 54.1468 11.6929C54.0603 11.6616 53.9684 11.6476 53.8763 11.6516H53.3956V14.3864H53.8763C54.0404 14.3966 54.2024 14.3462 54.3306 14.245C54.4986 14.0746 54.6448 13.8846 54.766 13.6794H54.8152V15.3575H54.766C54.6515 15.1542 54.5088 14.9676 54.342 14.8031C54.2083 14.7043 54.0433 14.6555 53.8763 14.6654H53.3956V17.5825H53.9066C54.0661 17.587 54.2236 17.547 54.3609 17.4672C54.5169 17.3489 54.6513 17.2055 54.7584 17.043L55.3149 16.2616H55.3717L55.2354 17.8616H51.7564Z" fill="#49453F"/>
<path d="M62.0835 17.8616H60.0733V17.8169C60.1616 17.7719 60.2383 17.7075 60.2973 17.6288C60.3564 17.5502 60.3963 17.4592 60.414 17.363C60.4588 16.9402 60.4651 16.5144 60.433 16.0905L60.2929 12.4888L58.9642 17.8765H58.4834L57.1622 12.4404L57.0335 15.7593C56.9959 16.2561 57.0162 16.7554 57.0941 17.2476C57.1124 17.3732 57.163 17.4921 57.2412 17.5931C57.3193 17.694 57.4225 17.7736 57.5408 17.8244V17.8616H56.0266V17.8244C56.2446 17.6805 56.402 17.4636 56.4695 17.2142C56.5861 16.7378 56.6433 16.2493 56.6398 15.7593L56.7572 13.1213C56.7938 12.7219 56.7811 12.3196 56.7193 11.9232C56.6468 11.6974 56.488 11.5081 56.2764 11.3949V11.3726H57.9837L59.1194 16.0086L60.255 11.3726H61.8639V11.4098C61.774 11.455 61.6941 11.5175 61.6291 11.5935C61.5641 11.6696 61.5152 11.7576 61.4854 11.8525C61.4414 12.1831 61.4313 12.5172 61.4551 12.8497L61.5876 16.0235C61.5893 16.4579 61.6388 16.8907 61.7352 17.3146C61.7933 17.5285 61.9277 17.7147 62.1138 17.8393L62.0835 17.8616Z" fill="#49453F"/>
<path d="M67.6029 17.8616H65.5094V17.8244C65.6721 17.7725 65.8079 17.6604 65.888 17.5118C65.9658 17.255 65.9979 16.9869 65.9826 16.7193V14.8366C65.5494 14.9648 65.0987 15.0263 64.6463 15.0189C64.2514 15.0509 63.8585 14.9368 63.5447 14.6989C63.4132 14.5542 63.3137 14.3843 63.2525 14.1998C63.1912 14.0154 63.1696 13.8204 63.1889 13.6273V12.4888C63.2034 12.2217 63.174 11.9541 63.1018 11.6963C63.0274 11.5504 62.8986 11.4384 62.7422 11.3837V11.3726H64.8205V11.4098C64.6591 11.464 64.5241 11.5755 64.4419 11.7223C64.367 11.9707 64.3375 12.2302 64.3548 12.4888V13.605C64.3256 13.8949 64.4036 14.1855 64.5744 14.4236C64.6778 14.5113 64.7981 14.5777 64.9282 14.6186C65.0583 14.6595 65.1955 14.6742 65.3315 14.6617C65.5419 14.6601 65.7514 14.6351 65.9561 14.5873V12.4888C65.9777 12.2253 65.9482 11.9601 65.8691 11.7074C65.788 11.5596 65.6526 11.4478 65.4905 11.3949V11.3726H67.5839V11.4098C67.4233 11.4653 67.2887 11.5764 67.2054 11.7223C67.1273 11.979 67.0978 12.2476 67.1183 12.5148V16.7193C67.1018 16.9864 67.1313 17.2543 67.2054 17.5118C67.2444 17.5859 67.2979 17.6516 67.3629 17.7053C67.4279 17.7589 67.503 17.7994 67.5839 17.8244L67.6029 17.8616Z" fill="#49453F"/>
<path d="M73.3532 17.8616H71.2635V17.8244C71.4256 17.7714 71.561 17.6596 71.6421 17.5118C71.7162 17.2543 71.7456 16.9864 71.7292 16.7193V13.1585L70.1089 16.816C70.0959 17.0499 70.1306 17.284 70.2111 17.5044C70.2852 17.6508 70.4121 17.7648 70.567 17.8244V17.8616H68.4811V17.8244C68.5623 17.7998 68.6376 17.7594 68.7026 17.7057C68.7676 17.6521 68.821 17.5861 68.8597 17.5118C68.93 17.2537 68.9581 16.9861 68.943 16.7193V12.4888C68.9581 12.2219 68.93 11.9544 68.8597 11.6963C68.8208 11.6221 68.7674 11.5563 68.7024 11.5026C68.6374 11.4489 68.5622 11.4085 68.4811 11.3837V11.3726H70.5594V11.4098C70.3971 11.4624 70.2616 11.5743 70.1809 11.7223C70.103 11.9791 70.071 12.2473 70.0862 12.5148V16.0607L71.7064 12.3734C71.7148 12.159 71.6841 11.9447 71.6156 11.7409C71.5801 11.6608 71.5281 11.5887 71.463 11.5291C71.3979 11.4696 71.3209 11.4239 71.237 11.3949V11.3726H73.3267V11.4098C73.1642 11.462 73.0285 11.574 72.9481 11.7223C72.8722 11.9795 72.8402 12.2473 72.8535 12.5148V16.7193C72.8356 16.9867 72.8664 17.2551 72.9443 17.5118C73.0244 17.6604 73.1602 17.7725 73.3229 17.8244L73.3532 17.8616Z" fill="#49453F"/>
<path d="M79.1603 17.8614H78.1609C77.8957 17.8984 77.6259 17.8374 77.4038 17.6903C77.2521 17.428 77.1811 17.1282 77.1993 16.827L77.1426 15.7108C77.1573 15.4113 77.0766 15.1147 76.9116 14.8625C76.8143 14.7751 76.6991 14.709 76.5738 14.6685C76.4485 14.6281 76.3159 14.6143 76.1848 14.6281H75.8555V16.708C75.8336 16.9754 75.8645 17.2445 75.9463 17.5005C75.9853 17.5746 76.0389 17.6403 76.1038 17.6939C76.1688 17.7476 76.2439 17.7881 76.3249 17.813V17.8503H74.2352V17.813C74.3985 17.7622 74.5346 17.6498 74.6138 17.5005C74.6917 17.2437 74.7225 16.9754 74.7046 16.708V12.4886C74.7225 12.2213 74.6917 11.9529 74.6138 11.6961C74.5343 11.5471 74.3983 11.4348 74.2352 11.3836V11.3724H76.3249V11.4096C76.1613 11.4621 76.0253 11.5757 75.9463 11.7259C75.8757 11.9738 75.8476 12.2316 75.863 12.4886V14.349H76.0637C76.2099 14.3664 76.3583 14.3506 76.4974 14.3028C76.6365 14.2551 76.7627 14.1767 76.8662 14.0737C77.0426 13.7568 77.1178 13.3951 77.082 13.0356C77.0726 12.6779 77.0992 12.3202 77.1615 11.9677C77.1924 11.8104 77.2583 11.6617 77.3546 11.5324C77.4426 11.4291 77.5535 11.3469 77.6789 11.2921C77.8042 11.2372 77.9405 11.2113 78.0776 11.2161C78.3293 11.1987 78.5797 11.2642 78.7893 11.4022C78.8682 11.4581 78.9322 11.532 78.9757 11.6175C79.0192 11.7031 79.041 11.7977 79.0391 11.8933C79.0441 11.9804 79.0308 12.0676 79.0002 12.1495C78.9696 12.2314 78.9223 12.3063 78.8612 12.3696C78.8012 12.427 78.7301 12.4721 78.6521 12.5021C78.574 12.5321 78.4907 12.5465 78.4069 12.5444C78.2499 12.5524 78.0961 12.4989 77.9792 12.3956C77.926 12.3445 77.8844 12.283 77.857 12.215C77.8296 12.1471 77.817 12.0742 77.8202 12.0012C77.8221 11.8313 77.8882 11.6682 78.0057 11.5436C77.752 11.5436 77.5968 11.6924 77.5438 11.9901C77.4866 12.2968 77.46 12.6084 77.4643 12.9202C77.4762 13.2235 77.443 13.5268 77.3659 13.8207C77.3061 14.0509 77.1565 14.2487 76.9495 14.3713C77.8013 14.4011 78.2631 14.8104 78.335 15.5918L78.4486 16.9275C78.4448 17.1598 78.5178 17.387 78.6568 17.5749C78.7947 17.7047 78.971 17.7881 79.1603 17.813V17.8614Z" fill="#49453F"/>
<path d="M80.2278 18.0217C80.2109 17.8842 80.153 17.7547 80.0612 17.6497C79.9582 17.5183 79.9011 17.3578 79.8984 17.192C79.8983 17.1171 79.9141 17.0431 79.9448 16.9746C79.9754 16.906 80.0202 16.8445 80.0763 16.7939C80.1359 16.736 80.207 16.691 80.2852 16.6615C80.3634 16.6321 80.447 16.6188 80.5306 16.6227C80.6184 16.6201 80.7057 16.636 80.7867 16.6693C80.8677 16.7027 80.9404 16.7528 81 16.8162C81.1325 16.969 81.1991 17.1666 81.1855 17.3669C81.1427 17.7056 80.9916 18.0222 80.754 18.271C80.4884 18.608 80.1791 18.9095 79.8341 19.1677H79.7962C80.0632 18.8421 80.2147 18.4397 80.2278 18.0217Z" fill="#49453F"/>
<path d="M89.4836 17.8614H88.4842C88.219 17.897 87.9498 17.8361 87.7271 17.6903C87.5791 17.4267 87.5096 17.1276 87.5264 16.8271L87.4696 15.7108C87.4854 15.4107 87.4031 15.1135 87.2349 14.8625C87.1386 14.7748 87.0241 14.7084 86.8994 14.668C86.7746 14.6275 86.6425 14.6139 86.5119 14.6281H86.1825V16.708C86.1607 16.9755 86.1916 17.2445 86.2734 17.5005C86.3525 17.6498 86.4887 17.7622 86.652 17.8131V17.8503H84.5661V17.8131C84.7294 17.7622 84.8655 17.6498 84.9447 17.5005C85.0226 17.2438 85.0534 16.9754 85.0355 16.708V12.4887C85.0534 12.2213 85.0226 11.9529 84.9447 11.6961C84.8652 11.5471 84.7292 11.4348 84.5661 11.3836V11.3724H86.652V11.4096C86.4886 11.4624 86.3527 11.5759 86.2734 11.7259C86.1955 11.9827 86.1635 12.2509 86.1788 12.5184V14.3788H86.3794C86.5257 14.3959 86.674 14.3799 86.813 14.3322C86.9521 14.2845 87.0782 14.2063 87.1819 14.1035C87.3584 13.7866 87.4336 13.4249 87.3977 13.0654C87.3883 12.7077 87.4149 12.35 87.4772 11.9975C87.5081 11.8402 87.574 11.6915 87.6703 11.5622C87.7584 11.4589 87.8693 11.3767 87.9946 11.3218C88.1199 11.267 88.2563 11.2411 88.3933 11.2459C88.645 11.2285 88.8954 11.294 89.105 11.432C89.1839 11.4879 89.2479 11.5618 89.2914 11.6473C89.3349 11.7328 89.3567 11.8275 89.3549 11.9231C89.36 12.0105 89.3465 12.0981 89.3152 12.1801C89.2839 12.2621 89.2355 12.3368 89.1731 12.3994C89.0539 12.5072 88.8991 12.5692 88.7371 12.574C88.5751 12.5788 88.4167 12.526 88.2911 12.4254C88.2392 12.3736 88.1986 12.3118 88.1719 12.244C88.1452 12.1762 88.133 12.1037 88.1359 12.031C88.1378 11.8611 88.2039 11.698 88.3214 11.5733C88.0678 11.5733 87.9125 11.7222 87.8596 12.0198C87.8024 12.3266 87.7757 12.6382 87.7801 12.95C87.79 13.2532 87.7569 13.5563 87.6816 13.8505C87.6204 14.08 87.4711 14.2773 87.2652 14.4011C88.117 14.4309 88.5788 14.8402 88.6507 15.6215L88.7643 16.9573C88.7605 17.1896 88.8335 17.4168 88.9725 17.6047C89.1104 17.7345 89.2867 17.8179 89.476 17.8428L89.4836 17.8614Z" fill="#49453F"/>
<path d="M92.3681 17.8616H90.1725V17.8243C90.3351 17.7702 90.4704 17.657 90.551 17.5081C90.6282 17.2524 90.6589 16.9854 90.6419 16.7193V12.4888C90.6586 12.2226 90.6279 11.9557 90.551 11.7C90.4714 11.5503 90.3356 11.4369 90.1725 11.3837V11.3725H92.2848C92.7959 11.3162 93.3101 11.4489 93.7271 11.7446C93.891 11.9243 94.015 12.1355 94.0913 12.3648C94.1675 12.5941 94.1944 12.8366 94.1701 13.0767C94.1701 14.3566 93.5189 14.9928 92.2243 14.9891H91.8457V16.6932C91.8287 16.9592 91.8647 17.2259 91.9517 17.4783C92.0506 17.6436 92.2085 17.7669 92.3946 17.8243L92.3681 17.8616ZM91.8306 14.7212H92.0539C92.2063 14.738 92.3603 14.709 92.4954 14.6379C92.6306 14.5668 92.7407 14.457 92.811 14.3231C92.9682 13.9447 93.038 13.5368 93.0155 13.1287C93.0409 12.7392 92.9775 12.3489 92.83 11.9865C92.7618 11.8689 92.6605 11.7733 92.5382 11.7113C92.4159 11.6492 92.2779 11.6233 92.141 11.6367H91.8495L91.8306 14.7212Z" fill="#49453F"/>
<path d="M94.4767 11.3726H96.5928V11.4098C96.5032 11.4331 96.4242 11.4855 96.3686 11.5584C96.313 11.6313 96.284 11.7205 96.2862 11.8116C96.3254 12.2056 96.4236 12.5918 96.5777 12.9576L97.2705 14.8552L97.914 13.0804C98.0802 12.6902 98.1775 12.2749 98.2017 11.8525C98.2064 11.7456 98.1702 11.6407 98.1001 11.5588C98.03 11.4768 97.9312 11.4236 97.8232 11.4098V11.3726H99.1973V11.4098C99.0292 11.5252 98.898 11.6852 98.8188 11.8711C98.6113 12.2898 98.4281 12.7196 98.2699 13.1585L97.1342 16.1351C96.9564 16.6577 96.7013 17.1517 96.3771 17.6011C96.2752 17.7301 96.1442 17.8338 95.9943 17.9043C95.8445 17.9747 95.68 18.0097 95.5139 18.0067C95.3134 18.0188 95.1153 17.9579 94.9575 17.8355C94.893 17.7832 94.8414 17.7172 94.8067 17.6424C94.7719 17.5676 94.7549 17.4861 94.7568 17.4039C94.753 17.2391 94.814 17.0791 94.9272 16.9574C94.9827 16.8978 95.0507 16.8506 95.1265 16.8191C95.2023 16.7877 95.2841 16.7727 95.3663 16.7751C95.5199 16.7847 95.665 16.848 95.7752 16.9537C95.9047 17.0822 95.9861 17.2501 96.0061 17.43C96.1289 17.3258 96.2304 17.1995 96.3051 17.0579C96.4474 16.7734 96.5738 16.4815 96.6837 16.1835L95.4155 13.0283C95.2491 12.5989 95.0556 12.1802 94.8363 11.7744C94.7582 11.6107 94.6243 11.4791 94.4578 11.4023L94.4767 11.3726Z" fill="#49453F"/>
<path d="M104.724 17.8616H102.635V17.8244C102.797 17.7725 102.933 17.6604 103.013 17.5118C103.091 17.2563 103.122 16.9892 103.104 16.723V12.3176C103.104 11.8972 103.021 11.6888 102.862 11.6888H101.726C101.563 11.6888 101.484 11.8972 101.484 12.3176V16.723C101.466 16.9892 101.497 17.2563 101.575 17.5118C101.655 17.6604 101.79 17.7725 101.953 17.8244V17.8616H99.8711V17.8244C99.9522 17.7998 100.028 17.7594 100.093 17.7057C100.158 17.6521 100.211 17.5861 100.25 17.5118C100.322 17.254 100.35 16.9862 100.333 16.7193V12.4888C100.349 12.2219 100.321 11.9542 100.25 11.6963C100.211 11.6221 100.157 11.5563 100.092 11.5026C100.027 11.4489 99.9521 11.4085 99.8711 11.3837V11.3726H104.743V11.4098C104.581 11.462 104.445 11.574 104.365 11.7223C104.291 11.98 104.26 12.2476 104.274 12.5148V16.7193C104.253 16.9865 104.283 17.2551 104.361 17.5118C104.441 17.6604 104.577 17.7725 104.739 17.8244L104.724 17.8616Z" fill="#49453F"/>
<path d="M105.743 14.7214C105.743 12.3971 106.556 11.235 108.184 11.235C108.605 11.2188 109.021 11.3249 109.38 11.5401V12.9317H109.335C109.175 12.5458 108.969 12.1798 108.722 11.8415C108.654 11.7398 108.563 11.6553 108.456 11.5945C108.348 11.5338 108.228 11.4986 108.105 11.4917C107.726 11.4917 107.457 11.7336 107.291 12.2359C107.093 13.0164 107.01 13.8209 107.045 14.6246C107.01 15.4347 107.094 16.2455 107.295 17.032C107.465 17.5305 107.749 17.7761 108.146 17.7761C108.271 17.7685 108.392 17.7305 108.499 17.6655C108.605 17.6006 108.693 17.5108 108.756 17.404C109.019 17.012 109.249 16.5988 109.441 16.1687H109.486L109.403 17.698C109.018 17.9008 108.587 18.0021 108.15 17.9919C107.813 18.0166 107.475 17.962 107.163 17.8326C106.852 17.7032 106.576 17.5027 106.36 17.2478C105.948 16.7343 105.743 15.8922 105.743 14.7214Z" fill="#49453F"/>
<path d="M115.271 17.8615H114.271C114.006 17.8978 113.737 17.8368 113.514 17.6903C113.363 17.4283 113.293 17.128 113.314 16.8271L113.257 15.7109C113.271 15.4109 113.189 15.1143 113.022 14.8626C112.925 14.7745 112.81 14.708 112.685 14.6676C112.559 14.6271 112.427 14.6137 112.295 14.6281H111.97V16.7081C111.947 16.9787 111.975 17.2512 112.053 17.5117C112.133 17.6603 112.269 17.7724 112.432 17.8243V17.8615H110.342V17.8243C110.505 17.7724 110.64 17.6603 110.721 17.5117C110.797 17.2546 110.826 16.9864 110.808 16.7192V12.4887C110.826 12.2216 110.797 11.9533 110.721 11.6962C110.64 11.5476 110.505 11.4356 110.342 11.3836V11.3725H112.432V11.4097C112.268 11.4621 112.132 11.5757 112.053 11.7259C111.977 11.9831 111.946 12.2511 111.962 12.5185V14.3789H112.163C112.309 14.3965 112.457 14.3808 112.595 14.333C112.734 14.2853 112.859 14.2067 112.962 14.1035C113.146 13.7825 113.225 13.4136 113.189 13.0468C113.179 12.6892 113.206 12.3315 113.268 11.979C113.302 11.8218 113.369 11.6735 113.465 11.5436C113.553 11.4403 113.664 11.3581 113.789 11.3033C113.915 11.2485 114.051 11.2225 114.188 11.2274C114.44 11.21 114.69 11.2754 114.9 11.4134C114.978 11.4695 115.042 11.5435 115.085 11.6291C115.127 11.7147 115.149 11.8092 115.146 11.9045C115.152 11.9917 115.139 12.0792 115.108 12.1612C115.078 12.2432 115.03 12.3181 114.968 12.3808C114.908 12.4386 114.837 12.4839 114.759 12.5139C114.681 12.544 114.598 12.5582 114.514 12.5557C114.357 12.5636 114.203 12.5101 114.086 12.4068C114.034 12.355 113.993 12.2933 113.967 12.2255C113.94 12.1576 113.928 12.0851 113.931 12.0124C113.933 11.8433 113.997 11.6806 114.112 11.5548C113.863 11.5548 113.707 11.7036 113.654 12.0013C113.597 12.3081 113.571 12.6196 113.575 12.9315C113.585 13.2347 113.552 13.5377 113.476 13.8319C113.415 14.0614 113.266 14.2587 113.06 14.3826C113.912 14.4123 114.374 14.8216 114.446 15.603L114.559 16.9387C114.553 17.1708 114.624 17.3985 114.764 17.5862C114.903 17.716 115.08 17.7994 115.271 17.8243V17.8615Z" fill="#49453F"/>
<path d="M120.851 17.8616H118.761V17.8244C118.923 17.7714 119.059 17.6596 119.14 17.5118C119.214 17.2543 119.243 16.9864 119.227 16.7193V13.1585L117.607 16.816C117.593 17.0499 117.628 17.284 117.709 17.5044C117.783 17.6508 117.91 17.7648 118.065 17.8244V17.8616H115.986V17.8244C116.067 17.7998 116.143 17.7594 116.208 17.7057C116.273 17.6521 116.326 17.5861 116.365 17.5118C116.435 17.2537 116.463 16.9861 116.448 16.7193V12.4888C116.463 12.2219 116.435 11.9544 116.365 11.6963C116.326 11.6221 116.273 11.5563 116.208 11.5026C116.143 11.4489 116.067 11.4085 115.986 11.3837V11.3726H118.065V11.4098C117.902 11.4624 117.767 11.5743 117.686 11.7223C117.608 11.9791 117.576 12.2473 117.591 12.5148V16.0607L119.212 12.3734C119.221 12.1586 119.189 11.944 119.117 11.7409C119.082 11.6601 119.031 11.5875 118.966 11.5279C118.9 11.4682 118.823 11.4229 118.738 11.3949V11.3726H120.828V11.4098C120.666 11.462 120.53 11.574 120.45 11.7223C120.385 11.9726 120.362 12.2314 120.381 12.4888V16.7193C120.362 16.9867 120.392 17.2554 120.472 17.5118C120.552 17.6604 120.688 17.7725 120.851 17.8244V17.8616Z" fill="#49453F"/>
<path d="M126.601 17.8615H124.511V17.8243C124.592 17.7993 124.668 17.7588 124.732 17.7052C124.797 17.6515 124.851 17.5858 124.89 17.5117C124.968 17.255 124.999 16.9866 124.981 16.7192V13.1584L123.361 16.816C123.348 17.0498 123.382 17.2839 123.463 17.5043C123.537 17.6507 123.664 17.7647 123.819 17.8243V17.8615H121.74V17.8243C121.821 17.7995 121.897 17.7591 121.962 17.7054C122.027 17.6517 122.08 17.5859 122.119 17.5117C122.193 17.2542 122.223 16.9863 122.206 16.7192V12.4887C122.223 12.2216 122.193 11.9537 122.119 11.6962C122.08 11.622 122.027 11.5562 121.962 11.5025C121.897 11.4489 121.821 11.4084 121.74 11.3836V11.3725H123.819V11.4097C123.656 11.4619 123.521 11.5739 123.44 11.7222C123.366 11.9798 123.335 12.2475 123.349 12.5148V16.0606L124.97 12.3734C124.979 12.1585 124.947 11.9439 124.875 11.7408C124.84 11.6603 124.788 11.5879 124.723 11.5283C124.658 11.4687 124.581 11.4232 124.496 11.3948V11.3725H126.586V11.4097C126.424 11.4623 126.288 11.5742 126.207 11.7222C126.13 11.9791 126.098 12.2472 126.113 12.5148V16.7192C126.091 16.9867 126.122 17.2558 126.204 17.5117C126.283 17.661 126.419 17.7734 126.582 17.8243L126.601 17.8615ZM124.44 9.93626C124.437 9.87182 124.448 9.80758 124.473 9.74788C124.498 9.68818 124.536 9.63441 124.583 9.59023C124.681 9.5048 124.808 9.45837 124.939 9.46C125.006 9.45978 125.071 9.47324 125.132 9.49952C125.192 9.5258 125.247 9.56431 125.291 9.61255C125.394 9.73738 125.445 9.89528 125.435 10.0553C125.425 10.166 125.387 10.2725 125.325 10.3653C125.263 10.4581 125.179 10.5344 125.079 10.5874C124.81 10.7642 124.49 10.8516 124.167 10.8367C123.845 10.8498 123.526 10.7653 123.255 10.5948C123.149 10.5339 123.061 10.447 122.999 10.3427C122.937 10.2384 122.904 10.1202 122.903 9.99951C122.902 9.8622 122.953 9.7295 123.046 9.62744C123.09 9.57911 123.144 9.5405 123.204 9.51419C123.264 9.48788 123.329 9.47448 123.395 9.47489C123.526 9.47325 123.653 9.51969 123.751 9.60511C123.8 9.64849 123.838 9.70201 123.864 9.76185C123.889 9.82168 123.901 9.88633 123.898 9.95114C123.9 10.0726 123.858 10.1909 123.78 10.2849C123.702 10.3789 123.592 10.4426 123.47 10.4646C123.682 10.5825 123.924 10.6392 124.167 10.6283C124.412 10.6353 124.654 10.5719 124.864 10.446C124.744 10.4227 124.636 10.359 124.558 10.266C124.481 10.173 124.439 10.0564 124.44 9.93626Z" fill="#49453F"/>
<path d="M134.767 17.8616H132.677V17.8244C132.84 17.7725 132.975 17.6604 133.056 17.5118C133.13 17.2543 133.159 16.9864 133.143 16.7193V13.1585L131.522 16.816C131.509 17.0499 131.544 17.284 131.625 17.5044C131.7 17.6499 131.826 17.7636 131.98 17.8244V17.8616H129.902V17.8244C129.983 17.7998 130.059 17.7594 130.124 17.7057C130.189 17.6521 130.242 17.5861 130.281 17.5118C130.351 17.2537 130.379 16.9861 130.364 16.7193V12.4888C130.379 12.2219 130.351 11.9544 130.281 11.6963C130.242 11.6221 130.188 11.5563 130.123 11.5026C130.058 11.4489 129.983 11.4085 129.902 11.3837V11.3726H131.98V11.4098C131.818 11.4624 131.683 11.5743 131.602 11.7223C131.524 11.9791 131.492 12.2473 131.507 12.5148V16.0607L133.127 12.3734C133.136 12.159 133.105 11.9447 133.037 11.7409C133.001 11.6608 132.949 11.5887 132.884 11.5291C132.819 11.4696 132.742 11.4239 132.658 11.3949V11.3726H134.767V11.4098C134.604 11.462 134.468 11.574 134.388 11.7223C134.312 11.9795 134.28 12.2473 134.293 12.5148V16.7193C134.277 16.9869 134.309 17.2553 134.388 17.5118C134.468 17.6604 134.604 17.7725 134.767 17.8244V17.8616Z" fill="#49453F"/>
<path d="M142.898 17.8616H140.824V17.8244C140.904 17.7994 140.98 17.7589 141.045 17.7053C141.11 17.6516 141.163 17.5859 141.202 17.5118C141.28 17.2563 141.311 16.9892 141.293 16.723V12.3176C141.293 11.8972 141.213 11.6888 141.051 11.6888H139.915C139.756 11.6888 139.677 11.8972 139.677 12.3176V16.723C139.656 16.989 139.686 17.2563 139.764 17.5118C139.844 17.6604 139.979 17.7725 140.142 17.8244V17.8616H138.064V17.8244C138.145 17.7996 138.22 17.7592 138.285 17.7055C138.35 17.6518 138.404 17.586 138.442 17.5118C138.515 17.254 138.543 16.9862 138.526 16.7193V12.4888C138.542 12.2219 138.514 11.9542 138.442 11.6963C138.404 11.6221 138.35 11.5563 138.285 11.5026C138.22 11.4489 138.145 11.4085 138.064 11.3837V11.3726H142.932V11.4098C142.851 11.4346 142.776 11.475 142.711 11.5286C142.646 11.5823 142.592 11.6481 142.554 11.7223C142.476 11.9793 142.444 12.2473 142.459 12.5148V16.7193C142.438 16.9865 142.468 17.2551 142.546 17.5118C142.626 17.6604 142.762 17.7725 142.925 17.8244L142.898 17.8616Z" fill="#49453F"/>
<path d="M148.258 17.8617H146.123V17.8244C146.216 17.796 146.299 17.7413 146.361 17.6673C146.423 17.5932 146.461 17.503 146.472 17.4077C146.489 17.0141 146.446 16.6202 146.343 16.2394L146.192 15.4952H144.893C144.747 16.0558 144.657 16.629 144.624 17.2068C144.613 17.3358 144.644 17.4651 144.712 17.576C144.78 17.6869 144.882 17.7739 145.003 17.8244V17.8617H143.568V17.8244C143.772 17.6469 143.923 17.4179 144.003 17.1622C144.21 16.5519 144.382 15.9308 144.518 15.3018L145.465 11.3057H146.453L147.365 15.2646C147.592 16.2568 147.756 16.9005 147.857 17.1956C147.921 17.4381 148.06 17.6552 148.255 17.817L148.258 17.8617ZM146.123 15.1641L145.567 12.4665L144.969 15.1641H146.123Z" fill="#49453F"/>
<path d="M151.116 17.8614H148.921V17.8242C149.083 17.77 149.219 17.6569 149.299 17.508C149.377 17.2523 149.407 16.9853 149.39 16.7192V12.4886C149.407 12.2225 149.376 11.9556 149.299 11.6998C149.22 11.5501 149.084 11.4367 148.921 11.3836V11.3724H151.045C151.548 11.3217 152.053 11.4541 152.464 11.7445C152.628 11.9241 152.752 12.1353 152.828 12.3647C152.905 12.594 152.931 12.8364 152.907 13.0765C152.907 14.3565 152.256 14.9927 150.961 14.989H150.583V16.6931C150.566 16.9591 150.602 17.2258 150.689 17.4782C150.788 17.6435 150.945 17.7668 151.132 17.8242L151.116 17.8614ZM150.568 14.7211H150.791C150.94 14.734 151.09 14.7031 151.222 14.6322C151.353 14.5613 151.46 14.4537 151.529 14.323C151.686 13.9446 151.756 13.5367 151.734 13.1286C151.759 12.739 151.696 12.3488 151.548 11.9863C151.48 11.8688 151.379 11.7732 151.256 11.7111C151.134 11.6491 150.996 11.6232 150.859 11.6366H150.568V14.7211Z" fill="#49453F"/>
<path d="M156.836 17.8613H154.713V17.824C154.875 17.7699 155.011 17.6567 155.091 17.5078C155.168 17.2534 155.199 16.9876 155.182 16.7227V11.6364H155.053C154.957 11.6353 154.862 11.6531 154.773 11.6889C154.684 11.7247 154.603 11.7777 154.535 11.8448C154.258 12.156 154.005 12.4868 153.778 12.8345H153.732L153.816 11.3462H157.741L157.817 12.8345H157.768C157.542 12.4869 157.289 12.1573 157.011 11.8485C156.942 11.7802 156.86 11.7262 156.769 11.6898C156.679 11.6533 156.582 11.6352 156.484 11.6364H156.344V16.7227C156.328 16.9876 156.358 17.2534 156.435 17.5078C156.474 17.5824 156.527 17.6488 156.592 17.703C156.657 17.7573 156.733 17.7984 156.814 17.824L156.836 17.8613Z" fill="#49453F"/>
<path d="M163.537 17.8616H161.451V17.8244C161.614 17.7735 161.75 17.6611 161.83 17.5118C161.908 17.2551 161.938 16.9867 161.921 16.7193V14.6952H160.281V16.7193C160.261 16.9865 160.29 17.2551 160.368 17.5118C160.449 17.6604 160.584 17.7725 160.747 17.8244V17.8616H158.669V17.8244C158.75 17.8007 158.826 17.7608 158.891 17.707C158.956 17.6532 159.009 17.5868 159.047 17.5118C159.121 17.2543 159.151 16.9864 159.134 16.7193V12.4888C159.151 12.2217 159.121 11.9538 159.047 11.6963C159.009 11.6217 158.956 11.5556 158.891 11.5019C158.825 11.4481 158.75 11.408 158.669 11.3837V11.3726H160.747V11.4098C160.666 11.4346 160.591 11.475 160.526 11.5286C160.461 11.5823 160.407 11.6481 160.368 11.7223C160.296 11.9712 160.267 12.2303 160.281 12.4888V14.3492H161.902V12.4888C161.919 12.2214 161.889 11.953 161.811 11.6963C161.731 11.5472 161.595 11.4349 161.432 11.3837V11.3726H163.537V11.4098C163.375 11.4624 163.239 11.5743 163.158 11.7223C163.081 11.9791 163.049 12.2473 163.064 12.5148V16.7193C163.043 16.987 163.075 17.2561 163.158 17.5118C163.238 17.6611 163.374 17.7735 163.537 17.8244V17.8616Z" fill="#49453F"/>
<path d="M164.404 17.8616V17.8244C164.566 17.7721 164.702 17.6601 164.782 17.5118C164.86 17.2551 164.891 16.9867 164.873 16.7193V12.4888C164.891 12.2214 164.86 11.9531 164.782 11.6963C164.702 11.5482 164.566 11.4363 164.404 11.3837V11.3726H167.781V12.8125H167.735C167.527 12.4678 167.29 12.1405 167.027 11.834C166.96 11.7725 166.882 11.7247 166.796 11.6934C166.71 11.6621 166.619 11.6479 166.528 11.6516H166.043V14.3864H166.528C166.693 14.3972 166.856 14.3468 166.986 14.245C167.154 14.0739 167.301 13.8841 167.425 13.6795H167.47V15.3575H167.425C167.309 15.1539 167.165 14.9673 166.997 14.8031C166.863 14.7043 166.698 14.6555 166.531 14.6655H166.043V17.5825H166.565C166.725 17.5881 166.883 17.548 167.02 17.4672C167.176 17.3489 167.31 17.2055 167.417 17.043L167.974 16.2617H168.03L167.894 17.8616H164.404ZM166.039 10.0033C166.093 10.0538 166.135 10.1145 166.164 10.1817C166.192 10.2489 166.207 10.3212 166.206 10.394C166.206 10.464 166.191 10.5332 166.162 10.5972C166.134 10.6613 166.092 10.7188 166.039 10.7661C165.987 10.818 165.926 10.8592 165.857 10.8873C165.789 10.9154 165.716 10.9299 165.642 10.9298C165.571 10.9286 165.501 10.9136 165.436 10.8855C165.371 10.8573 165.312 10.8168 165.263 10.7661C165.212 10.718 165.171 10.6603 165.143 10.5964C165.115 10.5324 165.101 10.4636 165.1 10.394C165.1 10.3215 165.114 10.2496 165.142 10.1825C165.17 10.1154 165.211 10.0545 165.263 10.0033C165.312 9.95267 165.371 9.91209 165.436 9.88398C165.501 9.85587 165.571 9.84079 165.642 9.83962C165.716 9.83956 165.789 9.85401 165.857 9.88212C165.926 9.91024 165.987 9.95144 166.039 10.0033ZM167.482 10.0033C167.534 10.0545 167.575 10.1154 167.603 10.1825C167.631 10.2496 167.645 10.3215 167.644 10.394C167.644 10.4636 167.629 10.5324 167.602 10.5964C167.574 10.6603 167.533 10.718 167.482 10.7661C167.429 10.8182 167.367 10.8595 167.299 10.8878C167.23 10.916 167.156 10.9306 167.082 10.9306C167.008 10.9306 166.934 10.916 166.866 10.8878C166.797 10.8595 166.735 10.8182 166.683 10.7661C166.631 10.7186 166.59 10.661 166.562 10.5969C166.534 10.5328 166.519 10.4637 166.52 10.394C166.52 10.2479 166.579 10.1076 166.683 10.0033C166.735 9.95125 166.797 9.90988 166.866 9.88165C166.934 9.85341 167.008 9.83887 167.082 9.83887C167.156 9.83887 167.23 9.85341 167.299 9.88165C167.367 9.90988 167.429 9.95125 167.482 10.0033Z" fill="#49453F"/>
<path d="M171.029 17.8619H168.837V17.8247C168.999 17.7705 169.135 17.6574 169.215 17.5084C169.292 17.2528 169.323 16.9857 169.306 16.7196V12.4891C169.323 12.223 169.292 11.956 169.215 11.7003C169.136 11.5506 169 11.4372 168.837 11.384V11.3729H170.949C171.454 11.3209 171.961 11.4533 172.372 11.7449C172.537 11.9241 172.662 12.1352 172.738 12.3647C172.814 12.5942 172.841 12.8368 172.815 13.077C172.815 14.3569 172.167 14.9944 170.87 14.9895H170.491V16.6936C170.472 16.9596 170.508 17.2267 170.597 17.4786C170.694 17.6459 170.852 17.7699 171.04 17.8247L171.029 17.8619ZM170.48 14.7216H170.703C170.852 14.7345 171.002 14.7035 171.134 14.6327C171.265 14.5618 171.372 14.4542 171.441 14.3234C171.598 13.9451 171.668 13.5372 171.646 13.1291C171.671 12.7395 171.608 12.3492 171.46 11.9868C171.392 11.8696 171.29 11.7743 171.168 11.7122C171.046 11.6502 170.908 11.6241 170.771 11.637H170.48V14.7216Z" fill="#49453F"/>
<path d="M175.768 17.8616H173.682V17.8244C173.845 17.7702 173.98 17.6571 174.061 17.5081C174.138 17.2524 174.169 16.9854 174.152 16.7193V12.4888C174.168 12.2227 174.138 11.9557 174.061 11.7C173.981 11.5503 173.845 11.4369 173.682 11.3837V11.3726H175.878V11.4098C175.689 11.4637 175.529 11.5878 175.431 11.7558C175.343 12.0104 175.308 12.2801 175.329 12.5483V14.2971H175.787C177.086 14.2971 177.737 14.8664 177.733 16.0086C177.748 16.2585 177.713 16.5089 177.627 16.7448C177.542 16.9807 177.409 17.1973 177.237 17.3816C177.038 17.555 176.805 17.6869 176.553 17.7694C176.3 17.8519 176.033 17.8833 175.768 17.8616ZM175.329 17.5825H175.651C176.222 17.5825 176.506 17.0765 176.506 16.0719C176.506 15.0673 176.196 14.5613 175.575 14.5613H175.321L175.329 17.5825ZM180.118 17.8616H178.036V17.8244C178.198 17.7724 178.334 17.6604 178.414 17.5118C178.49 17.2547 178.52 16.9864 178.501 16.7193V12.4888C178.52 12.2216 178.49 11.9534 178.414 11.6963C178.334 11.5477 178.198 11.4356 178.036 11.3837V11.3726H180.118V11.4098C180.037 11.4346 179.962 11.475 179.897 11.5286C179.832 11.5823 179.778 11.6481 179.739 11.7223C179.665 11.9799 179.636 12.2477 179.652 12.5148V16.7193C179.635 16.9862 179.663 17.254 179.735 17.5118C179.773 17.5869 179.826 17.6534 179.891 17.7072C179.956 17.7611 180.032 17.8009 180.114 17.8244L180.118 17.8616Z" fill="#49453F"/>
<path d="M47.9443 29.8423C48.0929 29.9033 48.2318 29.9847 48.357 30.0842L48.1904 30.2888C48.0874 30.203 47.9711 30.1339 47.8459 30.0842C47.7244 30.0422 47.5962 30.0221 47.4674 30.0247C47.3117 30.0206 47.1571 30.0521 47.0159 30.1166C46.8747 30.1812 46.7506 30.2771 46.6535 30.3967C46.4194 30.7367 46.3099 31.1447 46.343 31.5539C46.3353 31.8443 46.3841 32.1336 46.4869 32.406C46.558 32.6095 46.6899 32.7871 46.8655 32.9157C47.0348 33.0259 47.2341 33.083 47.4371 33.0794C47.583 33.084 47.7285 33.06 47.8648 33.0087C47.993 32.9533 48.1128 32.8807 48.2207 32.7929L48.3835 32.9901C48.2567 33.1111 48.1068 33.2063 47.9424 33.2702C47.778 33.334 47.6024 33.3653 47.4257 33.3622C47.1654 33.3652 46.91 33.2927 46.6913 33.1538C46.4628 33.0012 46.2861 32.7848 46.184 32.5325C46.0548 32.2236 45.9929 31.8915 46.0023 31.5576C45.9937 31.2219 46.0583 30.8883 46.1916 30.5791C46.3051 30.3319 46.4892 30.1225 46.7216 29.9763C46.9376 29.8378 47.1905 29.7653 47.4484 29.7679C47.617 29.762 47.7852 29.7873 47.9443 29.8423Z" fill="#49453F"/>
<path d="M52.0025 29.8198L51.9684 30.0914H50.9274V33.2987H50.6245V30.0914H49.5911V29.8198H52.0025Z" fill="#49453F"/>
<path d="M55.4587 30.0763C55.5754 30.1708 55.6673 30.2914 55.7266 30.428C55.7858 30.5647 55.8108 30.7133 55.7994 30.8614C55.8128 31.0161 55.7873 31.1716 55.7253 31.3143C55.6632 31.457 55.5665 31.5826 55.4436 31.68C55.16 31.8698 54.8208 31.9626 54.4783 31.9442H53.971V33.2985H53.6606V29.8196H54.5123C54.8478 29.8017 55.1801 29.8919 55.4587 30.0763ZM55.2165 31.5051C55.3086 31.4267 55.3801 31.3276 55.425 31.2161C55.4698 31.1047 55.4866 30.9843 55.4739 30.8651C55.485 30.7512 55.4681 30.6363 55.4247 30.5301C55.3812 30.4239 55.3124 30.3295 55.224 30.2549C55.0045 30.117 54.7458 30.0518 54.4858 30.0689H53.971V31.6949H54.4783C54.7386 31.7106 54.9973 31.6441 55.2165 31.5051Z" fill="#49453F"/>
<path d="M58.578 32.3351C58.5021 32.5298 58.4071 32.7167 58.2941 32.8932C58.2196 33.0131 58.1171 33.1138 57.9951 33.1871C57.8453 33.2657 57.6846 33.3221 57.5181 33.3545L57.4613 33.1239C57.5927 33.0949 57.7198 33.0499 57.8398 32.9899C57.9361 32.9334 58.0177 32.8557 58.0783 32.7629C58.1658 32.6245 58.2381 32.4773 58.2941 32.3239H58.1919L57.0108 29.8198H57.3401L58.3925 32.1193L59.3124 29.8198H59.6266L58.578 32.3351Z" fill="#49453F"/>
<path d="M63.416 29.8198L62.3788 31.4644L63.5145 33.3248H63.1586L62.1251 31.617H61.5687V33.3248H61.2582V29.8198H61.5687V31.3379H62.1327L63.1018 29.8198H63.416Z" fill="#49453F"/>
<path d="M67.1069 29.8198L67.0728 30.0914H66.0356V33.2987H65.729V30.0914H64.6804V29.8198H67.1069Z" fill="#49453F"/>
<path d="M69.8098 32.3351C69.7334 32.5289 69.6397 32.7156 69.5297 32.8932C69.4527 33.0124 69.3491 33.1129 69.2269 33.1871C69.0771 33.2657 68.9164 33.3221 68.7499 33.3545L68.6931 33.1239C68.8242 33.0939 68.9512 33.0489 69.0717 32.9899C69.1659 32.9321 69.246 32.8546 69.3064 32.7629C69.3938 32.6239 69.4673 32.4769 69.5259 32.3239H69.4199L68.2388 29.8198H68.5682L69.6206 32.1193L70.5405 29.8198H70.8547L69.8098 32.3351Z" fill="#49453F"/>
<path d="M74.2806 30.0767C74.3961 30.1719 74.4869 30.2928 74.5455 30.4293C74.6041 30.5658 74.6288 30.7141 74.6176 30.8618C74.6307 31.0161 74.6055 31.1711 74.5442 31.3137C74.4828 31.4563 74.3872 31.5821 74.2655 31.6804C73.9803 31.8697 73.6401 31.9624 73.2964 31.9445H72.7891V33.2989H72.4787V29.82H73.3115C73.6545 29.7986 73.9951 29.8888 74.2806 30.0767ZM74.0346 31.5055C74.1267 31.4271 74.1983 31.3279 74.2431 31.2165C74.2879 31.1051 74.3047 30.9847 74.292 30.8655C74.3031 30.7516 74.2863 30.6367 74.2428 30.5305C74.1993 30.4243 74.1305 30.3299 74.0421 30.2553C73.8238 30.1179 73.5665 30.0527 73.3077 30.0693H72.7891V31.6953H73.2964C73.5568 31.7115 73.8156 31.645 74.0346 31.5055Z" fill="#49453F"/>
<path d="M78.46 33.2987V31.5983H76.7678V33.2987H76.4688V29.8198H76.7792V31.3379H78.4713V29.8198H78.7817V33.2987H78.46Z" fill="#49453F"/>
<path d="M82.7035 31.4123C82.8165 31.5077 82.9055 31.6276 82.9633 31.7626C83.0211 31.8975 83.0462 32.0438 83.0367 32.1899C83.0493 32.3459 83.0251 32.5025 82.966 32.6477C82.9069 32.7929 82.8145 32.9228 82.696 33.0271C82.4273 33.2216 82.0978 33.3177 81.7647 33.2987H80.9508V29.8198H81.2612V31.1519H81.7685C82.1012 31.1316 82.4311 31.2234 82.7035 31.4123ZM82.4726 32.8448C82.5589 32.7611 82.6251 32.6596 82.6663 32.5476C82.7076 32.4356 82.7229 32.3159 82.7111 32.1974C82.7206 32.0852 82.7041 31.9722 82.6628 31.8672C82.6215 31.7621 82.5565 31.6677 82.4726 31.5909C82.2689 31.4522 82.0234 31.3853 81.7761 31.4011H81.2612V33.0457H81.8063C82.0459 33.0605 82.2827 32.9891 82.4726 32.8448ZM83.6083 29.8198H83.9187V33.2987H83.6083V29.8198Z" fill="#49453F"/>
<path d="M88.4273 33.2988H88.1169V31.4645C88.1169 30.9399 88.1169 30.512 88.1586 30.1808L86.4854 33.3174H86.1068V29.8199H86.4172V31.6803C86.4172 32.1417 86.4172 32.5695 86.3756 32.9714L88.0526 29.8273H88.4311L88.4273 33.2988ZM86.8071 29.2878C86.7487 29.2476 86.6992 29.1963 86.6615 29.1368C86.6237 29.0774 86.5986 29.011 86.5876 28.9418L86.7958 28.9009C86.8301 28.9919 86.8949 29.0687 86.9795 29.1187C87.0641 29.1688 87.1635 29.189 87.2614 29.1762C87.3598 29.1892 87.4597 29.1691 87.545 29.1191C87.6302 29.0691 87.6957 28.9922 87.7308 28.9009L87.939 28.9418C87.9279 29.0115 87.9024 29.0781 87.864 29.1377C87.8255 29.1972 87.7751 29.2483 87.7157 29.2878C87.5818 29.3765 87.4227 29.4208 87.2614 29.4143C87.1001 29.4208 86.941 29.3765 86.8071 29.2878Z" fill="#49453F"/>
<path d="M95.3965 33.2987H95.0899V31.4644C95.0899 30.9398 95.0899 30.5119 95.1315 30.1807L93.4583 33.3173H93.0798V29.8198H93.3902V31.6802C93.3902 32.1416 93.3902 32.5695 93.3485 32.9713L95.018 29.8198H95.3965V33.2987Z" fill="#49453F"/>
<path d="M102.067 33.2987V31.5983H100.375V33.2987H100.064V29.8198H100.375V31.3379H102.067V29.8198H102.377V33.2987H102.067Z" fill="#49453F"/>
<path d="M106.488 33.2987L106.178 32.3499H104.69L104.38 33.2987H104.065L105.239 29.8198H105.618L106.795 33.2987H106.488ZM104.777 32.0895H106.095L105.44 30.0691L104.777 32.0895Z" fill="#49453F"/>
<path d="M110.702 29.8198V33.2987H110.391V30.084H109.104L108.896 31.7807C108.865 32.0847 108.816 32.3866 108.748 32.6848C108.718 32.8419 108.651 32.9898 108.551 33.1164C108.447 33.222 108.316 33.3001 108.173 33.3434L108.093 33.1015C108.197 33.0674 108.288 33.004 108.355 32.9192C108.418 32.8155 108.461 32.7004 108.48 32.5806C108.51 32.4318 108.548 32.1713 108.597 31.7918L108.843 29.8198H110.702Z" fill="#49453F"/>
<path d="M114.847 29.976C115.076 30.1232 115.253 30.3363 115.354 30.5862C115.594 31.2135 115.594 31.9049 115.354 32.5321C115.251 32.781 115.076 32.9945 114.851 33.1461C114.623 33.2828 114.361 33.3552 114.094 33.3552C113.826 33.3552 113.564 33.2828 113.336 33.1461C113.11 32.9961 112.934 32.7838 112.829 32.5359C112.7 32.2295 112.638 31.8999 112.647 31.5685C112.639 31.2359 112.701 30.9052 112.829 30.5973C112.933 30.345 113.111 30.1287 113.34 29.976C113.564 29.8289 113.828 29.7535 114.097 29.7602C114.363 29.7587 114.624 29.8337 114.847 29.976ZM113.276 30.415C113.05 30.7585 112.944 31.1645 112.973 31.5722C112.945 31.9752 113.051 32.3761 113.276 32.7145C113.375 32.8342 113.5 32.9308 113.642 32.9971C113.783 33.0634 113.938 33.0978 114.095 33.0978C114.252 33.0978 114.407 33.0634 114.549 32.9971C114.691 32.9308 114.816 32.8342 114.915 32.7145C115.137 32.3725 115.24 31.9692 115.21 31.5647C115.24 31.1591 115.136 30.7549 114.915 30.4113C114.818 30.2885 114.692 30.1905 114.549 30.1257C114.405 30.0609 114.248 30.0313 114.09 30.0392C113.934 30.0318 113.778 30.0618 113.636 30.1266C113.494 30.1914 113.371 30.2891 113.276 30.4113V30.415Z" fill="#49453F"/>
<path d="M119.48 29.8198L119.435 30.0914H117.792V33.2987H117.482V29.8198H119.48Z" fill="#49453F"/>
<path d="M122.797 29.9764C123.025 30.1247 123.201 30.3374 123.304 30.5866C123.543 31.2139 123.543 31.9053 123.304 32.5325C123.2 32.7817 123.023 32.9952 122.797 33.1465C122.572 33.2901 122.308 33.364 122.04 33.3586C121.769 33.3673 121.502 33.2933 121.277 33.1466C121.051 33 120.877 32.788 120.779 32.54C120.65 32.2336 120.588 31.904 120.597 31.5726C120.589 31.24 120.651 30.9094 120.779 30.6015C120.881 30.348 121.057 30.1303 121.286 29.9764C121.51 29.83 121.774 29.7546 122.043 29.7606C122.311 29.7584 122.572 29.8334 122.797 29.9764ZM121.222 30.4154C120.998 30.7594 120.893 31.1653 120.923 31.5726C120.895 31.9756 121.001 32.3765 121.226 32.7149C121.325 32.8346 121.45 32.9312 121.591 32.9975C121.733 33.0638 121.888 33.0982 122.045 33.0982C122.202 33.0982 122.357 33.0638 122.499 32.9975C122.641 32.9312 122.766 32.8346 122.865 32.7149C123.06 32.3613 123.162 31.9655 123.162 31.5633C123.162 31.1611 123.06 30.7652 122.865 30.4117C122.766 30.2914 122.641 30.1943 122.499 30.1275C122.358 30.0608 122.202 30.0262 122.045 30.0262C121.888 30.0262 121.733 30.0608 121.591 30.1275C121.449 30.1943 121.324 30.2914 121.226 30.4117L121.222 30.4154Z" fill="#49453F"/>
<path d="M127.441 31.7065C127.522 31.7901 127.583 31.8891 127.623 31.9974C127.662 32.1057 127.677 32.2208 127.669 32.3353C127.681 32.4773 127.657 32.62 127.598 32.7502C127.539 32.8804 127.447 32.9937 127.332 33.0795C127.052 33.2518 126.726 33.335 126.397 33.3176H125.431V29.8201H126.223C126.553 29.8016 126.882 29.8778 127.169 30.0396C127.277 30.111 127.364 30.2083 127.422 30.3224C127.48 30.4364 127.508 30.5633 127.502 30.6908C127.51 30.8788 127.446 31.063 127.324 31.208C127.2 31.3417 127.033 31.4297 126.851 31.4572C127.071 31.4731 127.279 31.5608 127.441 31.7065ZM125.742 30.0768V31.3493H126.438C126.632 31.3587 126.822 31.2978 126.972 31.1782C127.042 31.1233 127.098 31.0537 127.137 30.9744C127.176 30.8952 127.196 30.8084 127.195 30.7205C127.204 30.6261 127.186 30.5313 127.145 30.4457C127.104 30.3601 127.04 30.2867 126.961 30.2331C126.745 30.1232 126.503 30.0731 126.26 30.088L125.742 30.0768ZM127.347 32.3353C127.355 32.2307 127.338 32.1256 127.298 32.0286C127.257 31.9316 127.193 31.8455 127.112 31.7772C126.933 31.6466 126.714 31.5809 126.491 31.5912H125.734V33.046H126.389C127.029 33.046 127.347 32.8079 127.347 32.3353Z" fill="#49453F"/>
<path d="M131.307 31.4123C131.42 31.5077 131.508 31.6276 131.566 31.7626C131.624 31.8975 131.649 32.0438 131.64 32.1899C131.652 32.3459 131.628 32.5025 131.569 32.6477C131.51 32.7929 131.418 32.9228 131.299 33.0271C131.03 33.2216 130.701 33.3177 130.368 33.2987H129.554V29.8198H129.864V31.1519H130.368C130.702 31.1307 131.033 31.2226 131.307 31.4123ZM131.076 32.8448C131.162 32.7611 131.228 32.6596 131.269 32.5476C131.311 32.4356 131.326 32.3159 131.314 32.1974C131.323 32.0849 131.306 31.9718 131.264 31.8667C131.222 31.7616 131.156 31.6673 131.072 31.5909C130.87 31.4516 130.625 31.3847 130.379 31.4011H129.864V33.0457H130.409C130.649 33.0605 130.886 32.9891 131.076 32.8448ZM132.211 29.8198H132.522V33.2987H132.211V29.8198Z" fill="#49453F"/>
<path d="M137.038 33.2988H136.727V31.4645C136.727 30.9399 136.727 30.512 136.769 30.1808L135.096 33.3174H134.717V29.8199H135.028V31.6803C135.028 32.1417 135.028 32.5695 134.986 32.9714L136.659 29.8199H137.038V33.2988ZM135.41 29.2878C135.352 29.2476 135.302 29.1963 135.264 29.1368C135.227 29.0774 135.202 29.011 135.19 28.9418L135.399 28.9009C135.433 28.9919 135.498 29.0687 135.582 29.1187C135.667 29.1688 135.766 29.189 135.864 29.1762C135.963 29.1886 136.062 29.1681 136.147 29.1182C136.232 29.0683 136.298 28.9918 136.334 28.9009L136.538 28.9418C136.528 29.0112 136.503 29.0778 136.465 29.1373C136.427 29.1969 136.377 29.2481 136.319 29.2878C136.185 29.3765 136.026 29.4208 135.864 29.4143C135.703 29.4208 135.544 29.3765 135.41 29.2878Z" fill="#49453F"/>
<path d="M143.852 29.8198L142.815 31.4644L143.95 33.3248H143.595L142.561 31.617H142.005V33.3248H141.694V29.8198H142.005V31.3379H142.569L143.538 29.8198H143.852Z" fill="#49453F"/>
<path d="M147.52 29.9764C147.743 30.1254 147.916 30.3366 148.016 30.5829C148.142 30.894 148.202 31.2268 148.194 31.5615C148.204 31.8926 148.143 32.2221 148.016 32.5289C147.913 32.7777 147.738 32.9913 147.513 33.1428C147.288 33.2862 147.024 33.36 146.756 33.3549C146.488 33.3603 146.224 33.2878 145.998 33.1465C145.772 32.9965 145.596 32.7843 145.491 32.5363C145.365 32.2291 145.305 31.8999 145.313 31.5689C145.306 31.2367 145.366 30.9065 145.491 30.5978C145.597 30.3444 145.778 30.1281 146.01 29.9764C146.234 29.8298 146.498 29.7544 146.767 29.7606C147.034 29.7593 147.296 29.8342 147.52 29.9764ZM145.945 30.4155C145.721 30.7594 145.617 31.1653 145.646 31.5726C145.617 31.9752 145.722 32.3761 145.945 32.7149C146.041 32.8364 146.165 32.9335 146.306 32.9983C146.448 33.063 146.603 33.0934 146.759 33.087C146.917 33.0962 147.075 33.0671 147.219 33.0022C147.363 32.9374 147.489 32.8387 147.585 32.7149C147.806 32.3729 147.91 31.9697 147.88 31.5652C147.909 31.1596 147.806 30.7553 147.585 30.4117C147.486 30.2914 147.361 30.1943 147.219 30.1276C147.078 30.0609 146.922 30.0262 146.765 30.0262C146.608 30.0262 146.453 30.0609 146.311 30.1276C146.169 30.1943 146.044 30.2914 145.945 30.4117V30.4155Z" fill="#49453F"/>
<path d="M152.157 33.2987V31.5983H150.465V33.2987H150.155V29.8198H150.465V31.3379H152.157V29.8198H152.468V33.2987H152.157Z" fill="#49453F"/>
<path d="M156.344 29.8423C156.491 29.9041 156.629 29.9855 156.753 30.0841L156.587 30.2888C156.484 30.2021 156.368 30.133 156.242 30.0841C156.121 30.0418 155.992 30.0216 155.864 30.0246C155.708 30.0202 155.554 30.0516 155.414 30.1162C155.273 30.1808 155.15 30.2768 155.054 30.3967C154.816 30.7353 154.705 31.144 154.739 31.5538C154.732 31.8442 154.78 32.1335 154.883 32.4059C154.96 32.6117 155.098 32.7896 155.281 32.9156C155.448 33.0264 155.647 33.0835 155.849 33.0793C155.996 33.0835 156.142 33.0595 156.28 33.0086C156.407 32.9515 156.527 32.879 156.636 32.7928L156.795 32.99C156.568 33.1931 156.28 33.3179 155.975 33.3454C155.669 33.373 155.363 33.3017 155.103 33.1426C154.876 32.9909 154.7 32.7775 154.595 32.5287C154.466 32.2198 154.404 31.8877 154.414 31.5538C154.405 31.2181 154.47 30.8844 154.603 30.5753C154.713 30.3314 154.892 30.1236 155.118 29.9762C155.334 29.8377 155.587 29.7652 155.845 29.7679C156.015 29.7623 156.184 29.7875 156.344 29.8423Z" fill="#49453F"/>
<path d="M160.452 33.2987L160.13 32.3499H158.654L158.343 33.2987H158.029L159.21 29.8198H159.589L160.766 33.2987H160.452ZM158.741 32.0895H160.058L159.403 30.0691L158.741 32.0895Z" fill="#49453F"/>
<path d="M164.673 29.8198V33.2987H164.362V30.084H163.079L162.867 31.7807C162.835 32.0843 162.787 32.3861 162.723 32.6848C162.69 32.8417 162.622 32.9893 162.522 33.1164C162.418 33.2228 162.288 33.301 162.144 33.3434L162.064 33.1015C162.168 33.0674 162.259 33.004 162.326 32.9192C162.389 32.8155 162.432 32.7004 162.451 32.5806C162.481 32.4318 162.519 32.1713 162.568 31.7918L162.814 29.8198H164.673Z" fill="#49453F"/>
<path d="M168.776 29.8198L168.738 30.0914H167.701V33.2987H167.398V30.0914H166.35V29.8198H168.776Z" fill="#49453F"/>
<path d="M172.762 33.2987H172.452V31.4644C172.452 30.9398 172.452 30.5119 172.494 30.1807L170.82 33.3173H170.442V29.8198H170.73V31.6802C170.73 32.1416 170.73 32.5695 170.688 32.9713L172.365 29.8273H172.744L172.762 33.2987Z" fill="#49453F"/>
<path d="M176.946 33.2987V31.5983H175.272V33.2987H174.962V29.8198H175.272V31.3379H176.964V29.8198H177.275V33.2987H176.946Z" fill="#49453F"/>
<path d="M181.435 29.8198L181.386 30.0914H179.747V33.2987H179.436V29.8198H181.435Z" fill="#49453F"/>
<path d="M180.799 23.29H45.5784V23.7291H180.799V23.29Z" fill="#49453F"/>
<path d="M5.56482 6.42383V37.5071H37.1895V6.42383H5.56482ZM34.7138 35.0514H8.05573V8.87209H34.6986L34.7138 35.0514Z" fill="#49453F"/>
<path d="M33.6121 9.93604H9.13837V33.9833H33.6121V9.93604Z" fill="#D6795F"/>
<path d="M17.7922 24.7671H15.6458V24.7299C15.8095 24.6736 15.945 24.5577 16.0244 24.4062C16.0985 24.1411 16.1279 23.8658 16.1114 23.5913V19.0185C16.1114 18.5869 16.0357 18.3674 15.8919 18.3674H14.6805C14.5253 18.3674 14.4458 18.5869 14.4458 19.0223V22.5347C14.486 23.1386 14.3701 23.7428 14.1089 24.2909C14.0299 24.4569 13.9049 24.5977 13.7482 24.697C13.5915 24.7964 13.4095 24.8504 13.223 24.8527C13.1223 24.8597 13.0212 24.8469 12.9257 24.8149C12.8301 24.783 12.742 24.7326 12.6665 24.6666C12.6062 24.6087 12.5586 24.5391 12.5267 24.4623C12.4948 24.3855 12.4793 24.3031 12.481 24.2202C12.4775 24.0556 12.5354 23.8954 12.6438 23.7699C12.6945 23.709 12.7588 23.6602 12.8316 23.6273C12.9044 23.5944 12.9839 23.5783 13.064 23.5802C13.2144 23.5923 13.3593 23.6416 13.4851 23.7236C13.6109 23.8055 13.7134 23.9175 13.7833 24.049C13.9916 23.5613 14.0822 23.0328 14.0483 22.5049V19.558C14.0663 19.1969 14.0331 18.835 13.9499 18.4827C13.9101 18.3857 13.8492 18.2984 13.7713 18.227C13.6935 18.1556 13.6006 18.102 13.4994 18.0697V18.0288H17.7922V18.0697C17.6285 18.1261 17.4931 18.2419 17.4137 18.3934C17.3301 18.6581 17.2968 18.9355 17.3152 19.212V23.569C17.2984 23.8479 17.3317 24.1275 17.4137 24.395C17.4918 24.5475 17.6277 24.6638 17.7922 24.7187V24.7671Z" fill="white"/>
<path d="M23.7923 24.7674H22.7589C22.4934 24.7985 22.2253 24.7366 22.0018 24.5925C21.8448 24.3213 21.7712 24.0111 21.7898 23.6995L21.7141 22.5349C21.7301 22.2244 21.6453 21.9169 21.4718 21.6568C21.3706 21.5655 21.2506 21.4967 21.12 21.4549C20.9894 21.4132 20.8511 21.3996 20.7147 21.415H20.374V23.5656C20.3536 23.8419 20.3857 24.1194 20.4686 24.3842C20.5477 24.5359 20.6833 24.6519 20.8472 24.7079V24.7674H18.697V24.7302C18.8608 24.6742 18.9964 24.5583 19.0755 24.4065C19.155 24.1411 19.187 23.8641 19.1702 23.5879V19.2049C19.187 18.9287 19.155 18.6517 19.0755 18.3863C18.9952 18.2355 18.8601 18.1199 18.697 18.0626V18.0254H20.8585V18.07C20.6938 18.1266 20.558 18.244 20.48 18.3975C20.4004 18.6642 20.3671 18.9422 20.3815 19.2197V21.1359H20.5897C20.7407 21.1545 20.8941 21.1386 21.0378 21.0896C21.1816 21.0405 21.3119 20.9596 21.4188 20.8532C21.6016 20.525 21.6794 20.1502 21.6421 19.7779C21.6309 19.404 21.6588 19.0299 21.7254 18.6616C21.7568 18.5004 21.824 18.3479 21.9223 18.2151C22.0145 18.1071 22.1307 18.0214 22.262 17.9647C22.3933 17.9079 22.5361 17.8816 22.6794 17.8877C22.9388 17.8695 23.197 17.9362 23.4138 18.0775C23.4958 18.1355 23.5624 18.2122 23.6079 18.3009C23.6534 18.3896 23.6764 18.4879 23.675 18.5872C23.6803 18.6776 23.6663 18.768 23.6336 18.8526C23.601 18.9372 23.5506 19.0142 23.4857 19.0784C23.4248 19.1383 23.3521 19.1855 23.2721 19.2168C23.192 19.2482 23.1062 19.2631 23.0201 19.2607C22.9388 19.2651 22.8574 19.2535 22.7808 19.2267C22.7041 19.1999 22.6336 19.1583 22.5734 19.1044C22.5197 19.0513 22.4779 18.9879 22.4505 18.918C22.4231 18.8482 22.4108 18.7736 22.4144 18.6988C22.4192 18.5244 22.4862 18.3571 22.6037 18.2263C22.3425 18.2263 22.1835 18.3788 22.1267 18.6877C22.0693 19.0057 22.0427 19.3284 22.0472 19.6514C22.0576 19.9646 22.0232 20.2777 21.945 20.5815C21.8797 20.8182 21.7255 21.0217 21.5134 21.1508C22.3942 21.1806 22.8712 21.601 22.9444 22.4122L23.0617 23.7926C23.0584 24.0328 23.1341 24.2677 23.2775 24.4623C23.4211 24.596 23.6039 24.6819 23.7999 24.7079L23.7923 24.7674Z" fill="white"/>
<path d="M29.5578 24.7674H27.4V24.7302C27.5633 24.6732 27.6985 24.5576 27.7786 24.4065C27.8562 24.142 27.887 23.8664 27.8694 23.5917V19.0188C27.8694 18.5872 27.7899 18.3677 27.6233 18.3677H26.446C26.2832 18.3677 26.2 18.5872 26.2 19.0188V23.5731C26.1779 23.8503 26.2087 24.1292 26.2908 24.3953C26.3708 24.5464 26.5061 24.6621 26.6694 24.719V24.7674H24.5229V24.7302C24.6047 24.7035 24.6802 24.6612 24.7452 24.6056C24.8102 24.5501 24.8633 24.4824 24.9015 24.4065C24.9772 24.1404 25.0067 23.8637 24.9886 23.5879V19.2086C25.007 18.9329 24.9775 18.6561 24.9015 18.39C24.8644 18.3134 24.8117 18.2451 24.7465 18.1894C24.6814 18.1337 24.6053 18.0918 24.5229 18.0663V18.0254H29.5578V18.07C29.4761 18.0969 29.4007 18.1393 29.3357 18.1948C29.2708 18.2504 29.2176 18.318 29.1792 18.3937C29.0996 18.6592 29.0663 18.936 29.0808 19.2123V23.5693C29.0592 23.8454 29.09 24.1229 29.1716 24.3879C29.2517 24.539 29.3869 24.6546 29.5502 24.7116L29.5578 24.7674Z" fill="white"/>
<path d="M5.56482 6.42383V37.5071H37.1895V6.42383H5.56482ZM34.6759 35.0365H8.07844V8.89442H34.6759V35.0365Z" fill="#6EB160"/>
</svg>
